<?xml version="1.0" standalone="no"?>
<!DOCTYPE svg PUBLIC "-//W3C//DTD SVG 20010904//EN"
 "http://www.w3.org/TR/2001/REC-SVG-20010904/DTD/svg10.dtd">
<svg version="1.0" xmlns="http://www.w3.org/2000/svg"
 width="3088.000000pt" height="3306.000000pt" viewBox="0 0 3088.000000 3306.000000"
 preserveAspectRatio="xMidYMid meet">

<g transform="translate(0.000000,3306.000000) scale(0.100000,-0.100000)"
fill="#000000" stroke="none">
<path d="M15035 31084 c-634 -50 -1229 -235 -1783 -552 -153 -88 -288 -176
-472 -307 -75 -54 -1529 -897 -4200 -2435 -2247 -1295 -4148 -2387 -4225
-2428 -391 -209 -724 -454 -1049 -771 -786 -769 -1216 -1678 -1306 -2766 -14
-164 -14 -605 0 -750 8 -75 12 -1803 15 -5490 3 -2959 7 -5422 10 -5472 11
-187 70 -464 151 -701 286 -846 919 -1573 1854 -2127 128 -76 450 -243 580
-301 47 -21 1979 -1127 4295 -2457 3421 -1966 4227 -2433 4300 -2491 447 -360
1037 -603 1665 -688 220 -29 640 -32 860 -5 865 107 1689 465 2555 1113 83 62
1101 652 4218 2448 2259 1302 4183 2404 4275 2450 523 263 998 688 1338 1198
390 586 609 1264 665 2063 14 206 6 718 -15 915 -13 118 -12 716 5 4810 17
4264 20 4690 36 4845 11 113 17 249 16 405 -3 945 -321 1847 -906 2575 -438
545 -995 981 -1722 1347 -264 133 -8007 4601 -8218 4742 -646 432 -1411 715
-2192 812 -124 15 -631 27 -750 18z m2110 -3884 c50 -11 119 -30 155 -42 84
-27 1246 -539 1326 -584 133 -73 330 -245 454 -394 205 -247 351 -580 400
-907 6 -43 106 -622 221 -1288 1237 -7138 1500 -8654 1506 -8678 6 -20 71 291
246 1175 131 662 484 2450 786 3973 301 1524 556 2815 566 2870 54 300 168
450 328 432 85 -10 200 -74 298 -166 80 -75 126 -103 790 -483 387 -223 742
-423 789 -445 263 -128 475 -333 599 -581 49 -97 99 -256 122 -388 16 -92 21
-161 21 -304 1 -225 -21 -383 -86 -632 -223 -857 -2765 -10989 -2770 -11043
-43 -451 -204 -832 -461 -1091 -104 -105 -203 -177 -330 -241 -49 -25 -460
-266 -913 -534 -569 -338 -846 -508 -895 -550 -240 -203 -488 -310 -654 -282
-261 45 -436 323 -522 829 -11 66 -23 163 -26 215 -8 108 -2043 12391 -2696
16274 l-282 1670 -5 181 c-7 295 27 495 115 674 38 77 62 110 128 175 95 96
188 147 322 176 115 25 334 20 468 -11z m-3091 -160 c319 -81 549 -385 636
-840 l21 -109 -10 -2032 c-14 -2616 -14 -6954 0 -7599 11 -535 8 -591 -37
-746 -103 -357 -402 -639 -834 -785 l-95 -32 -875 -8 c-481 -4 -1011 -8 -1177
-8 -169 -1 -303 -5 -303 -10 0 -5 749 -1578 1665 -3496 l1665 -3487 0 -957 0
-956 -67 -100 c-87 -130 -278 -323 -386 -389 -336 -208 -741 -177 -1129 87
-174 118 -1020 620 -1087 644 -246 89 -514 411 -765 918 -51 103 -682 1615
-1612 3863 l-1529 3693 -5 -2838 c-5 -2688 -6 -2841 -23 -2897 -42 -139 -84
-203 -160 -241 -67 -33 -135 -33 -235 1 -95 32 -209 98 -316 185 -66 53 -241
152 -891 505 l-810 439 -85 85 c-256 255 -434 558 -519 882 -17 62 -35 149
-40 193 -7 54 -12 1677 -15 4900 -4 3541 -8 4843 -17 4905 -17 128 -14 434 6
565 63 423 236 762 536 1050 154 148 303 253 494 347 61 30 1667 954 3570
2053 1903 1099 3522 2028 3597 2065 244 120 424 168 629 169 94 1 145 -4 203
-19z"/>
<path d="M10975 22084 c-16 -3 -77 -16 -135 -30 -131 -32 -158 -45 -1522 -723
l-1068 -530 0 -1379 c0 -1569 -7 -1447 84 -1537 97 -97 -14 -90 1366 -90
l1205 0 80 28 c119 42 181 82 270 171 94 95 143 175 185 301 l30 91 -2 1700
-3 1699 -22 58 c-43 114 -128 197 -233 228 -40 11 -190 20 -235 13z"/>
</g>
</svg>
